<?xml version="1.0" standalone="no"?>
<!DOCTYPE svg PUBLIC "-//W3C//DTD SVG 20010904//EN"
 "http://www.w3.org/TR/2001/REC-SVG-20010904/DTD/svg10.dtd">
<svg version="1.0" xmlns="http://www.w3.org/2000/svg"
 width="500.000000pt" height="500.000000pt" viewBox="0 0 500.000000 500.000000"
 preserveAspectRatio="xMidYMid meet">
<metadata>
Created by potrace 1.14, written by Peter Selinger 2001-2017
</metadata>
<g transform="translate(0.000000,500.000000) scale(0.100000,-0.100000)"
fill="#000000" stroke="none">
<path d="M0 2500 l0 -2500 2500 0 2500 0 0 2500 0 2500 -2500 0 -2500 0 0
-2500z m2019 935 c71 -36 102 -112 77 -186 l-15 -42 83 -161 c107 -209 246
-416 280 -416 17 0 388 360 491 476 69 78 73 84 73 131 0 58 19 100 62 137 39
32 68 40 127 33 152 -17 197 -217 68 -305 -24 -17 -50 -24 -94 -26 -55 -2 -67
-7 -143 -58 -46 -31 -120 -90 -164 -132 -107 -99 -294 -316 -294 -340 0 -12
301 -5 445 10 146 16 151 17 185 49 49 45 71 55 128 55 164 0 228 -225 89
-310 -75 -46 -157 -34 -221 33 -46 48 -69 54 -261 63 -132 6 -369 -7 -383 -20
-10 -11 36 -151 93 -283 62 -144 159 -312 183 -319 86 -27 122 -70 122 -148 0
-43 -4 -53 -39 -87 -38 -38 -56 -44 -121 -39 -88 6 -139 126 -89 206 25 41 24
45 -48 189 -94 188 -237 395 -273 395 -20 0 -340 -296 -401 -371 -20 -24 -53
-70 -73 -101 -32 -50 -36 -65 -36 -120 0 -51 -5 -70 -25 -101 -68 -99 -221
-95 -284 7 -30 47 -29 132 2 176 34 51 69 71 133 79 42 5 72 16 104 38 60 41
245 234 349 363 l84 104 -28 7 c-15 4 -119 11 -231 15 l-205 7 -32 -30 c-18
-17 -42 -36 -54 -42 -58 -29 -143 3 -169 64 -19 46 -18 79 6 124 48 95 191 93
237 -4 l17 -35 146 0 c138 0 300 14 327 29 8 4 4 30 -16 91 -37 114 -76 196
-145 307 -87 141 -129 190 -174 202 -65 18 -112 81 -112 153 0 110 122 184
219 133z"/>
</g>
</svg>
